<?xml version="1.0" encoding="UTF-8"?>
<svg width="209px" height="149px" viewBox="0 0 209 149" version="1.1" xmlns="http://www.w3.org/2000/svg" xmlns:xlink="http://www.w3.org/1999/xlink">
    <!-- Generator: Sketch 45.1 (43504) - http://www.bohemiancoding.com/sketch -->
    <title>icono1</title>
    <desc>Created with Sketch.</desc>
    <defs></defs>
    <g id="Welcome" stroke="none" stroke-width="1" fill="none" fill-rule="evenodd">
        <g id="financiamiento" transform="translate(-599.000000, -762.000000)">
            <g id="1" transform="translate(-5.000000, 504.000000)">
                <g id="icono1" transform="translate(604.000000, 258.000000)">
                    <path d="M195.493419,85.493558 C195.493419,85.493558 195.382058,85.6206293 195.380262,85.6224446 L195.191667,85.8384658 C192.59086,88.8119338 189.900245,91.8870588 187.389244,94.3268274 C186.124763,95.5594188 184.739941,96.7139521 183.380264,97.8448866 C182.374427,98.6817417 181.120723,99.7182803 179.955029,100.800201 C177.584127,102.96949 175.231187,105.253142 172.889023,107.531349 L170.880941,109.480985 C170.074475,110.261566 169.320097,111.123835 168.547758,112.004258 C167.326384,113.394781 165.941561,114.975911 164.878248,115.42066 C161.995446,116.626022 158.796525,118.715437 156.224455,120.394593 L148.612423,124.778552 C148.492082,124.847534 148.377129,124.923777 148.267564,125.007281 L146.025984,126.695513 C145.833798,126.815323 145.585931,126.973255 145.334471,127.136632 C145.034516,127.3345 144.723784,127.534184 144.711211,127.552337 C141.514086,129.138913 138.584585,131.526037 135.649696,133.922239 C134.568421,134.804476 133.487146,135.688529 132.387909,136.521754 C131.54552,137.162556 130.697743,137.912277 129.95055,138.576678 C128.413056,139.938156 126.501965,141.631835 125.276999,141.742568 C124.071791,141.51384 117.214136,139.747549 111.678439,138.322536 C105.900263,136.837617 100.443596,135.434387 98.1714819,134.91521 L97.8715269,134.849859 C93.9110428,133.944022 89.9487626,133.040001 85.9828901,132.1977 C79.0228556,130.70915 70.7624174,128.986427 62.2505198,127.516031 C60.4238476,127.205614 58.5881946,127.171123 56.9716705,127.140263 C55.3030584,127.109403 53.4207059,127.03679 52.1149136,126.759049 C49.2392968,126.143661 46.2882422,125.255977 43.2886919,124.351956 C41.2518715,123.738383 38.9420381,123.03586 36.6340009,122.445887 C33.9020752,121.750625 31.1270421,121.166097 28.6106529,120.634213 C26.4840256,120.180387 24.2801644,119.713854 22.1337796,119.189231 C20.7812877,118.857031 17.7583876,118.383236 14.155335,117.833199 C11.7413256,117.459246 9.07046853,117.045357 7.46472124,116.742201 C4.1418661,106.476657 10.2505311,80.4978414 17.3865871,74.656193 C25.5356648,77.1613126 33.0956092,79.426812 40.4669592,81.5797626 C41.1566762,81.779446 41.5410497,81.9137785 41.7368287,81.9863907 C42.5504792,82.6199318 43.3838872,82.6998051 45.0596839,82.8522907 C46.6726157,83.0138527 49.2967732,82.3367443 53.3973561,81.2167017 C59.2240274,79.6228648 67.2060643,77.4408694 74.5432877,77.4408694 C76.6645266,77.4408694 78.6133362,77.6278457 80.3322402,78.0017983 C89.1243353,79.9024216 96.6501531,84.2791196 102.144539,87.4776853 C105.724242,89.559839 108.31068,91.064726 110.545076,91.5730112 C110.891731,91.6492539 111.229405,91.68556 112.605246,91.8144466 C123.91373,92.8945525 131.759261,94.473867 135.989166,96.4997463 C138.90789,98.1589341 142.681576,101.315748 143.222213,102.532002 C143.319204,102.76073 143.3677,102.958598 143.373089,103.140128 C143.374885,103.265384 143.3677,103.392456 143.360516,103.452361 L143.317408,103.679274 C143.317408,103.682904 143.317408,103.690165 143.315612,103.693796 L143.171921,104.289216 C142.918666,105.187791 142.462447,106.006493 141.920013,106.509333 C140.752523,107.618483 138.422933,108.277439 135.00129,108.475307 C131.888583,108.655022 128.646554,108.471676 125.510497,108.299222 L125.237484,108.2847 C118.216381,107.845396 111.955044,107.515011 106.503766,107.89804 C99.8616477,108.308299 95.0713479,109.726051 92.8297678,110.528416 C91.1360097,111.120205 89.8409943,111.722886 89.0794318,112.073239 C88.2909273,112.461715 87.8742233,112.67229 87.8742233,112.67229 C86.2217764,113.512776 85.5554092,115.545916 86.3852249,117.217811 C86.972562,118.401389 88.1544208,119.082128 89.381183,119.082128 C89.8858977,119.082128 90.397797,118.967764 90.8809581,118.722698 C90.8935311,118.715437 91.2779046,118.521199 91.9352911,118.199891 C92.5693278,117.905811 93.6326414,117.412049 95.0426097,116.920101 C96.9752541,116.230286 101.086614,115.015847 106.942023,114.656417 C112.017909,114.296987 118.043952,114.618296 124.847722,115.043077 L125.144085,115.057599 C128.461552,115.244576 131.890379,115.431552 135.378479,115.237314 C138.636673,115.048523 143.33537,114.445842 146.471427,111.479635 C147.904745,110.152648 149.021942,108.25384 149.646998,106.024646 L149.839185,105.236805 C149.866127,105.135147 149.885885,105.031675 149.90205,104.928203 L149.961322,104.608709 C150.043945,104.085902 150.081664,103.548572 150.070887,103.002165 C150.049333,101.931136 149.810447,100.863737 149.348839,99.7945231 C149.079419,99.1863962 148.680676,98.5637469 148.210088,97.9519895 C150.113994,97.9066069 152.188533,97.8285488 153.000388,97.6688021 C153.156652,97.6361266 153.519472,97.6343113 153.839184,97.6306807 C154.530697,97.6270501 155.471874,97.6234195 156.517226,97.3420473 C159.062353,96.7702266 161.449421,95.8716511 163.680224,94.9984899 C165.666752,94.2179091 167.698184,93.3265949 169.713451,92.348146 C171.317402,91.5730112 172.863877,90.7343407 174.02957,90.0100344 C174.17865,89.9210845 174.315156,89.8339499 174.446274,89.7522612 C175.166526,89.4545514 175.863427,89.0842294 176.517222,88.6485564 C181.135092,85.6061069 185.767332,82.3421902 190.245104,79.1890072 L190.765984,78.8205004 C192.290905,77.7385793 193.82301,76.6602887 195.356912,75.5856287 C196.982417,74.4474331 198.205587,74.1823987 199.41798,74.9520876 C199.976579,75.5202777 201.158438,77.2920145 201.799659,78.5028222 C199.717935,80.6702952 197.576939,83.1173251 195.493419,85.493558 Z M203.274288,69.4099644 C199.766431,67.0228396 195.549099,67.2134466 191.541915,70.0180913 C189.99544,71.1018278 188.452558,72.1891949 186.925841,73.2729314 L186.413941,73.6323616 C181.979277,76.7601304 177.390145,79.9931868 172.851304,82.979362 C172.493873,83.2189821 172.120276,83.4114043 171.739495,83.552998 C171.484443,83.6492091 171.241964,83.7744651 171.017447,83.9305813 C170.893514,84.0159005 170.758803,84.0994045 170.563024,84.2173993 C169.975687,84.5804601 168.711206,85.32655 166.821669,86.239648 C164.953686,87.1454847 163.08211,87.9696327 161.255438,88.6830472 C159.247355,89.4708891 157.109951,90.2805147 154.995897,90.7506785 C154.934828,90.7633856 154.871964,90.7797233 154.810895,90.7960611 C154.595358,90.8559661 154.228946,90.8577814 153.803261,90.8577814 C153.20874,90.861412 152.475916,90.8686732 151.662265,91.0374965 C151.053374,91.1010321 148.305283,91.2208422 144.98602,91.2208422 C141.964916,91.2208422 140.666309,91.1173699 140.181352,91.064726 C139.872416,90.8886416 139.54013,90.7234489 139.207845,90.5582562 C139.206049,90.5582562 139.204253,90.5546256 139.20066,90.5546256 C139.20066,90.550995 139.197068,90.550995 139.195272,90.550995 C132.545969,87.2525876 121.338069,85.8511729 113.235691,85.0742228 C112.551362,85.0106871 112.071793,84.9671199 112.012521,84.9634892 C110.774982,84.6839324 108.206504,83.1899372 105.487152,81.6088074 C99.6065961,78.1869593 91.5527137,73.5052903 81.7332278,71.3795693 C79.5527163,70.9075902 77.1333186,70.6697854 74.5432877,70.6697854 C66.3151799,70.6697854 57.837409,72.9861133 51.6479177,74.6779767 C49.1961895,75.3460086 46.4193603,76.1066209 45.6721669,76.1102515 C45.3955617,76.0848373 45.1764328,76.0648689 45.0004113,76.0485312 C44.3933167,75.7272224 43.5724817,75.4367738 42.3241658,75.0718976 C34.7426677,72.8608574 26.9600021,70.5245611 18.5343192,67.9323069 C17.4494519,67.4421749 16.2711854,67.4530667 15.3174362,67.9559059 C3.606617,74.1170477 -3.75036388,109.504584 1.99188902,121.082593 C2.25771743,121.663491 3.06418336,122.959618 5.09202306,123.161116 C6.69238194,123.527808 9.83741942,124.014309 13.2375085,124.540747 C15.6820522,124.9147 19.3767079,125.47926 20.5549743,125.771524 C22.7714085,126.310669 25.0417268,126.791724 27.3048606,127.274595 C29.6919279,127.777434 32.3987077,128.349255 34.9923309,129.010026 C37.1566771,129.565509 39.3928688,130.240802 41.5230883,130.885235 C44.5046773,131.78381 47.5868499,132.709616 50.7300913,133.383093 C52.5783172,133.777014 54.7606247,133.87141 56.8459409,133.909531 C58.2990164,133.936761 59.8023839,133.965806 61.1315259,134.189088 C69.5176938,135.641332 77.699102,137.347717 84.5998639,138.821744 C88.5387943,139.658599 92.4687441,140.553544 96.3968977,141.450304 L96.6968527,141.521101 C98.8791603,142.018495 104.547772,143.477999 110.025992,144.88486 C121.370399,147.803868 123.823924,148.408365 124.617817,148.480977 C124.845926,148.500945 125.063259,148.511837 125.276999,148.511837 C125.462001,148.511837 125.641615,148.504576 125.754772,148.491869 C129.180007,148.25951 131.935282,145.821556 134.369049,143.664975 C135.078524,143.03688 135.757464,142.432384 136.413054,141.933175 C137.567971,141.058199 138.713907,140.121502 139.960427,139.104932 C142.505554,137.030039 145.138692,134.880719 147.687412,133.619083 C147.84188,133.539209 148.414848,133.185225 148.97165,132.822164 C149.215925,132.664233 149.447627,132.511747 149.472773,132.491779 C149.629037,132.408275 149.778116,132.312064 149.916419,132.206776 L152.104115,130.560296 L159.53833,126.285255 C159.59401,126.252579 159.646098,126.219904 159.699982,126.187228 L159.861635,126.081941 C162.203798,124.549824 165.11893,122.64557 167.435948,121.678013 C169.928988,120.639659 171.859836,118.434065 173.60209,116.448122 C174.243311,115.716555 174.906086,114.959573 175.518569,114.367784 L177.600293,112.34372 C179.840077,110.168986 182.155298,107.918009 184.461539,105.808625 C185.43325,104.91005 186.431903,104.073195 187.660461,103.054809 C189.099168,101.854893 190.588166,100.618671 192.037649,99.202734 C194.739041,96.5796197 197.519462,93.399207 200.210077,90.3222667 L200.510032,89.9791742 C202.88273,87.272556 205.33805,84.4697265 207.620942,82.1806282 C208.443573,81.3383271 208.894404,80.1275193 208.858481,78.8622524 C208.777655,76.0557924 204.933919,70.5427141 203.274288,69.4099644 L203.274288,69.4099644 Z" id="Fill-61" fill="#3B454E"></path>
                    <circle id="Oval-3" fill="#F8BF42" cx="142.2878" cy="37.2137324" r="32.8356462"></circle>
                    <path d="M141.758361,6.77108399 C158.342102,6.77108399 171.83469,20.4076478 171.83469,37.1683498 C171.83469,53.9290518 158.342102,67.5638002 141.758361,67.5638002 C125.176415,67.5638002 111.683827,53.9290518 111.683827,37.1683498 C111.683827,20.4076478 125.176415,6.77108399 141.758361,6.77108399 Z M141.758361,74.3348842 C162.036758,74.3348842 178.534284,57.6613168 178.534284,37.1683498 C178.534284,16.6735674 162.036758,0 141.758361,0 C121.479964,0 104.984233,16.6735674 104.984233,37.1683498 C104.984233,57.6613168 121.479964,74.3348842 141.758361,74.3348842 L141.758361,74.3348842 Z" id="Fill-62" fill="#3B454E"></path>
                    <path d="M144.193952,34.2890759 L139.595839,34.2890759 C136.109894,34.2890759 133.273433,31.665659 133.273433,28.4397629 C133.273433,25.2138669 136.109894,22.59045 139.595839,22.59045 L144.193952,22.59045 C147.679896,22.59045 150.516357,25.2138669 150.516357,28.4397629 L156.263998,28.4397629 C156.263998,22.1809981 151.151471,17.0950205 144.768716,16.7981679 L144.768716,10.8918241 L139.021074,10.8918241 L139.021074,16.7981679 C132.638319,17.0950205 127.525792,22.1809981 127.525792,28.4397629 C127.525792,34.8900928 132.941507,40.1383888 139.595839,40.1383888 L144.193952,40.1383888 C147.679896,40.1383888 150.516357,42.7618057 150.516357,45.9877018 C150.516357,49.2135979 147.679896,51.8370147 144.193952,51.8370147 L139.595839,51.8370147 C136.109894,51.8370147 133.273433,49.2135979 133.273433,45.9877018 L127.525792,45.9877018 C127.525792,52.2464666 132.638319,57.3324442 139.021074,57.6292969 L139.021074,63.5356406 L144.768716,63.5356406 L144.768716,57.6292969 C151.151471,57.3324442 156.263998,52.2464666 156.263998,45.9877018 C156.263998,39.5373719 150.848283,34.2890759 144.193952,34.2890759" id="Fill-191" fill="#3B454E"></path>
                </g>
            </g>
        </g>
    </g>
</svg>